<?xml version="1.0" encoding="UTF-8"?>
<svg version="1.1" xmlns="http://www.w3.org/2000/svg" width="120" height="120">
<path d="M0 0 C7.62488039 5.32125045 12.51371231 12.03627861 15 21 C15.84539074 29.93558349 15.40104805 37.15234806 11 45 C10.67 45.99 10.34 46.98 10 48 C19.9 57.9 29.8 67.8 40 78 C38.21844267 81.56311466 36.83236991 83.35645475 34 86 C31.19030533 84.71977125 29.1460762 83.39285871 26.97558594 81.20263672 C26.41530701 80.64220673 25.85502808 80.08177673 25.277771 79.50436401 C24.68595032 78.90222076 24.09412964 78.30007751 23.484375 77.6796875 C22.86854553 77.06102814 22.25271606 76.44236877 21.6182251 75.80496216 C19.65739664 73.83296186 17.70364699 71.85411263 15.75 69.875 C14.41973201 68.53469836 13.089008 67.19484917 11.7578125 65.85546875 C8.4998985 62.57553411 5.24831467 59.28944058 2 56 C1.15147461 56.35441162 0.30294922 56.70882324 -0.57128906 57.07397461 C-10.69283581 61.16119121 -20.27451211 63.65864839 -30.9375 59.4375 C-38.84625718 55.20758091 -45.70990632 48.63653338 -49.109375 40.26953125 C-51.40793004 31.83141472 -51.25207799 21.25125501 -47.45703125 13.3125 C-42.33684819 5.18609686 -36.44131463 -0.62268723 -27.21484375 -3.5703125 C-18.02380979 -5.35340551 -8.11739427 -4.86183155 0 0 Z " fill="#F3D25D" transform="translate(65,19)"/>
</svg>
